[img]http://img28.imageshack.us/img28/1695/a05ae8c1a8a0.jpg[/img]


Genre : Horror

Plot : A group of old college friends reunite to relive their glory days by renting a beautiful cabin in the woods. As the sun sets on their first day in the cabin, bright flashes of light announce the arrival of mysterious creatures. These friends will have to outwit a force that is both inhuman and extremely intelligent in order to survive. The outcome will shock and amaze you as we come to realize... we are not alone in the universe.





Video 
ID : 0 
Format : MPEG-4 Visual 
Format profile : Advanced Simple@L5 
Format settings, BVOP : 2 
Format settings, QPel : No 
Format settings, GMC : No warppoints 
Format settings, Matrix : Default (H.263) 
Muxing mode : Packed bitstream 
Codec ID : XVID 
Codec ID/Hint : XviD 
Duration : 1h 24mn 
Bit rate : 1 280 Kbps 
Width : 720 pixels 
Height : 404 pixels 
Display aspect ratio : 16:9 
Frame rate : 23.976 fps 
Color space : YUV 
Chroma subsampling : 4:2:0 
Bit depth : 8 bits 
Scan type : Progressive 
Compression mode : Lossy 
Bits/(Pixel*Frame) : 0.184 
Stream size : 770 MiB (86%) 
Writing library : XviD 1.2.1 (UTC 2008-12-04) 

Audio 
ID : 1 
Format : AC-3 
Format/Info : Audio Coding 3 
Mode extension : CM (complete main) 
Codec ID : 2000 
Duration : 1h 24mn 
Bit rate mode : Constant 
Bit rate : 192 Kbps 
Channel(s) : 2 channels 
Channel positions : Front: L R 
Sampling rate : 48.0 KHz 
Bit depth : 16 bits 
Compression mode : Lossy 
Stream size : 115 MiB (13%) 
Alignment : Aligned on interleaves 
Interleave, duration : 32 ms (0.77 video frame) 
Interleave, preload duration : 32 ms
 
http://www.imdb.com/title/tt1568332/

